<mxfile host="app.diagrams.net" agent="Mozilla/5.0 (Windows NT 10.0; Win64; x64) AppleWebKit/537.36 (KHTML, like Gecko) Chrome/137.0.0.0 Safari/537.36" version="27.1.4">
  <diagram name="UC3: Додавання нового рейсу" id="UC3">
    <mxGraphModel dx="947" dy="522" grid="1" gridSize="10" guides="1" tooltips="1" connect="1" arrows="1" fold="1" page="1" pageScale="1" pageWidth="827" pageHeight="1169" math="0" shadow="0">
      <root>
        <mxCell id="0" />
        <mxCell id="1" parent="0" />
        <mxCell id="admin" value="Адміністратор" style="swimlane" parent="1" vertex="1" collapsed="1">
          <mxGeometry x="40" y="20" width="120" height="30" as="geometry">
            <mxRectangle x="40" y="20" width="140" height="900" as="alternateBounds" />
          </mxGeometry>
        </mxCell>
        <mxCell id="ui" value="Вебінтерфейс" style="swimlane" parent="1" vertex="1" collapsed="1">
          <mxGeometry x="340" y="20" width="120" height="30" as="geometry">
            <mxRectangle x="200" y="20" width="140" height="900" as="alternateBounds" />
          </mxGeometry>
        </mxCell>
        <mxCell id="system" value="Система автовокзалу" style="swimlane" parent="1" vertex="1" collapsed="1">
          <mxGeometry x="630" y="20" width="160" height="30" as="geometry">
            <mxRectangle x="360" y="20" width="140" height="900" as="alternateBounds" />
          </mxGeometry>
        </mxCell>
        <mxCell id="e1" value="Увійти в систему" style="endArrow=block;" parent="1" edge="1">
          <mxGeometry relative="1" as="geometry">
            <mxPoint x="100" y="80" as="sourcePoint" />
            <mxPoint x="400" y="80" as="targetPoint" />
          </mxGeometry>
        </mxCell>
        <mxCell id="e2" value="Обрати &quot;Додати рейс&quot;" style="endArrow=block;" parent="1" edge="1">
          <mxGeometry relative="1" as="geometry">
            <mxPoint x="100" y="120" as="sourcePoint" />
            <mxPoint x="400" y="120" as="targetPoint" />
          </mxGeometry>
        </mxCell>
        <mxCell id="e3" value="Заповнити форму" style="endArrow=block;" parent="1" edge="1">
          <mxGeometry relative="1" as="geometry">
            <mxPoint x="100" y="170" as="sourcePoint" />
            <mxPoint x="400" y="170" as="targetPoint" />
          </mxGeometry>
        </mxCell>
        <mxCell id="e4" value="Валідація" style="endArrow=block;" parent="1" edge="1">
          <mxGeometry relative="1" as="geometry">
            <mxPoint x="400" y="100" as="sourcePoint" />
            <mxPoint x="720" y="100" as="targetPoint" />
          </mxGeometry>
        </mxCell>
        <mxCell id="e5" value="Результат перевірки" style="endArrow=block;" parent="1" edge="1">
          <mxGeometry relative="1" as="geometry">
            <mxPoint x="710" y="140" as="sourcePoint" />
            <mxPoint x="400" y="140" as="targetPoint" />
          </mxGeometry>
        </mxCell>
        <mxCell id="e6" value="Підтвердити" style="endArrow=block;" parent="1" edge="1">
          <mxGeometry relative="1" as="geometry">
            <mxPoint x="100" y="250" as="sourcePoint" />
            <mxPoint x="400" y="250" as="targetPoint" />
          </mxGeometry>
        </mxCell>
        <mxCell id="e7" value="Зберегти рейс у базу" style="endArrow=block;" parent="1" edge="1">
          <mxGeometry relative="1" as="geometry">
            <mxPoint x="400" y="210" as="sourcePoint" />
            <mxPoint x="710" y="210" as="targetPoint" />
          </mxGeometry>
        </mxCell>
        <mxCell id="e8" value="Підтвердження адміну" style="endArrow=block;" parent="1" edge="1">
          <mxGeometry relative="1" as="geometry">
            <mxPoint x="710" y="310" as="sourcePoint" />
            <mxPoint x="90" y="310" as="targetPoint" />
          </mxGeometry>
        </mxCell>
        <mxCell id="cY5WYt0mI24R3LSOdCLZ-3" value="" style="endArrow=none;dashed=1;html=1;dashPattern=1 3;strokeWidth=2;rounded=0;" edge="1" parent="1">
          <mxGeometry width="50" height="50" relative="1" as="geometry">
            <mxPoint x="100" y="461.14283970424106" as="sourcePoint" />
            <mxPoint x="100" y="50" as="targetPoint" />
          </mxGeometry>
        </mxCell>
        <mxCell id="cY5WYt0mI24R3LSOdCLZ-4" value="" style="endArrow=none;dashed=1;html=1;dashPattern=1 3;strokeWidth=2;rounded=0;" edge="1" parent="1">
          <mxGeometry width="50" height="50" relative="1" as="geometry">
            <mxPoint x="399.38" y="461.14283970424106" as="sourcePoint" />
            <mxPoint x="399.38" y="50" as="targetPoint" />
          </mxGeometry>
        </mxCell>
        <mxCell id="cY5WYt0mI24R3LSOdCLZ-5" value="" style="endArrow=none;dashed=1;html=1;dashPattern=1 3;strokeWidth=2;rounded=0;" edge="1" parent="1">
          <mxGeometry width="50" height="50" relative="1" as="geometry">
            <mxPoint x="709.38" y="461.14283970424106" as="sourcePoint" />
            <mxPoint x="709.38" y="50" as="targetPoint" />
          </mxGeometry>
        </mxCell>
      </root>
    </mxGraphModel>
  </diagram>
</mxfile>
